<?xml version="1.0" encoding="UTF-8"?>
<svg width="128" height="128" viewBox="0 0 128 128" fill="none" xmlns="http://www.w3.org/2000/svg">
    <!-- Background circle -->
    <circle cx="64" cy="64" r="60" fill="#007ACC" stroke="#005A9E" stroke-width="4"/>
    
    <!-- LaTeX symbol -->
    <g transform="translate(20, 35)">
        <!-- L -->
        <path d="M8 8 L8 50 L28 50 M8 50 L24 50" stroke="white" stroke-width="4" fill="none" stroke-linecap="round"/>
        
        <!-- A -->
        <path d="M32 50 L42 8 L52 50 M36 38 L48 38" stroke="white" stroke-width="4" fill="none" stroke-linecap="round" stroke-linejoin="round"/>
        
        <!-- T -->
        <path d="M56 8 L80 8 M68 8 L68 50" stroke="white" stroke-width="4" fill="none" stroke-linecap="round"/>
        
        <!-- E -->
        <path d="M84 8 L84 50 M84 8 L104 8 M84 29 L100 29 M84 50 L104 50" stroke="white" stroke-width="4" fill="none" stroke-linecap="round"/>
        
        <!-- X -->
        <path d="M108 8 L128 50 M128 8 L108 50" stroke="white" stroke-width="4" fill="none" stroke-linecap="round"/>
    </g>
    
    <!-- Check mark -->
    <g transform="translate(75, 75)">
        <circle cx="16" cy="16" r="20" fill="#4CAF50" stroke="white" stroke-width="2"/>
        <path d="M8 16 L14 22 L24 10" stroke="white" stroke-width="3" fill="none" stroke-linecap="round" stroke-linejoin="round"/>
    </g>
</svg> 